<?xml version="1.0" encoding="UTF-8"?>
<svg width="4e3" height="2250" version="1.1" viewBox="0 0 1058.3333 595.31254" xmlns="http://www.w3.org/2000/svg">
 <g transform="translate(0 298.31)">
  <path d="m412.55-35.483v-225.68h451.37v451.37h-451.37z" fill="#fcfcfc" stroke-width=".73393"/>
  <rect x="-4.5316" y="-303.18" width="1063.1" height="553.7" fill="#95d2ca"/>
  <rect x="-4.4447" y="219.17" width="1063.1" height="78.073" fill="#49bcc9"/>
  <path d="m278.94 30.42c-0.14741 0.16175-80.865 178.35-80.864 178.68 7.6e-4 0.80654 4.0051 10.378 4.7649 11.638 0.29362 0.48674 0.44294 1.1415 0.33233 1.4549-0.17581 0.49786-0.63396 0.54382-3.6255 0.36439-4.1883-0.25122-3.2488 0.27348 1.7787 0.99353 2.3794 0.34078 4.007 0.38192 5.8899 0.14849 2.2076-0.27367 2.7221-0.23714 3.3949 0.24203 1.2349 0.8795 2.9647 1.2014 3.5367 0.65795 0.92855-0.88212 1.8557-0.97703 2.2247-0.22761 0.1934 0.39283 0.82163 0.79312 1.4439 0.92 0.60596 0.12357 1.2534 0.42306 1.4385 0.66553 0.24961 0.32693 1.2929 0.40209 4.0371 0.29063 3.4905-0.14174 3.7276-0.10855 4.1748 0.58544 0.4443 0.68949 0.51085 0.69952 1.0599 0.15948 0.68513-0.67396 1.3855-0.35526 1.1718 0.53315-0.0816 0.33891-0.03 0.82403 0.11459 1.0783 0.20763 0.36518 0.30708 0.33679 0.47366-0.13506 0.29214-0.82758 0.98916-0.74812 1.2021 0.13702 0.15553 0.64651 0.32209 0.7041 1.3936 0.48186 0.66926-0.13881 2.1423-0.23537 3.2734-0.21443 1.7249 0.0319 2.1891 0.17624 2.8797 0.89534 0.75731 0.78863 0.85086 0.80953 1.1695 0.2606 0.2835-0.48841 0.84701-0.59786 3.104-0.60301 2.1299-5e-3 2.7575 0.10217 2.7575 0.47064 0 0.29215-0.19533 0.39568-0.504 0.26695-0.41995-0.17516-0.4676-0.0225-0.28559 0.9166 0.32029 1.6522 0.62532 1.8218 1.7338 0.96397 0.98303-0.76085 1.2663-0.75433 2.3002 0.054 0.41821 0.32694 0.64258 0.31568 1.0516-0.0532 0.28598-0.25797 0.44638-0.67756 0.35636-0.93246-0.2224-0.62992 1.8932-1.7441 3.4055-1.7934 1.2101-0.0395 1.469 0.32327 0.91227 1.2783-0.19789 0.33954-0.63363 0.40544-1.558 0.23568-0.79798-0.14654-1.3629-0.0951-1.4942 0.13579-0.11614 0.20424-0.0556 0.37124 0.13459 0.37124 0.19023 0 0.48231 0.39031 0.64914 0.86726 0.16685 0.47694 0.51266 0.86701 0.76846 0.86701 0.25581 0 0.55622 0.31219 0.66757 0.69362 0.16867 0.57757 0.31137 0.63025 0.85363 0.31481 0.46755-0.27196 0.55345-0.48478 0.30513-0.75468-0.24832-0.26988-0.24682-0.50528 5e-3 -0.83501 0.43933-0.57535 1.2994-0.59155 1.8122-0.0342 0.30845 0.33526 0.53286 0.32852 1.0639-0.032 0.55842-0.37912 0.71934-0.37755 0.94462 8e-3 0.40551 0.69547 0.33899 0.98594-0.22604 0.98594-0.51747 0-2.3649 1.6927-2.3649 2.1668 0 0.14371 0.47529 0.26108 1.0561 0.26108 0.58075 0 1.3346 0.22938 1.6753 0.50948 0.68541 0.56346 2.6937 0.71802 2.6937 0.20734 0-0.17811-0.3633-0.37314-0.80756-0.4335-1.0873-0.14776-1.0142-0.80352 0.0897-0.80352 0.71862 0 0.89566 0.1715 0.97788 0.94712 0.0973 0.91778 0.12432 0.93012 0.87137 0.39809 0.61092-0.4351 0.70609-0.68094 0.45816-1.1845-0.64457-1.3091-0.39362-1.7218 1.0432-1.7162 0.74597 2e-3 1.5569 0.14304 1.8018 0.31164 0.61748 0.42498 0.22089 1.3398-0.64039 1.4771-1.0912 0.17399-1.1456 0.98083-0.066 0.98083 1.2187 0 3.7834-1.5334 3.727-2.2284-0.0563-0.6935 0.19399-0.68886 1.1264 0.021 0.62671 0.4771 0.71906 0.78217 0.57927 1.915-0.11418 0.92518-0.0185 1.5083 0.30558 1.8606 0.61544 0.66892 0.85411 0.64737 1.5068-0.13654 0.51177-0.61467 0.50424-0.66005-0.13797-0.84259-0.44451-0.12634-0.63908-0.41089-0.56399-0.82452 0.0987-0.54357 0.3805-0.61472 2.0223-0.50996 1.1091 0.0708 2.1359 0.34208 2.4532 0.64819 0.6824 0.65839 2.8051 0.32627 2.8051-0.43887 0-0.27753 0.21555-0.50459 0.47883-0.50459s0.47859 0.23429 0.4786 0.52046c-1e-5 0.28617 0.20341 0.5202 0.45208 0.52021 0.24864 0 0.51263 0.19504 0.58646 0.43351 0.10231 0.33041 0.24134 0.33831 0.58489 0.0332 0.24797-0.2202 0.80301-0.45423 1.2336-0.52022 0.6544-0.10027 0.7853-0.31597 0.79791-1.3147 0.0143-1.1306-0.0441-1.1955-1.0878-1.2138-0.85476-0.015-1.2116-0.22963-1.587-0.95372-0.5173-0.99786-0.26274-1.7202 0.36557-1.0372 0.20771 0.22575 0.69936 0.41055 1.0927 0.41055 0.39332 0 0.80869 0.16448 0.92304 0.36561 0.13718 0.24126 0.4841 0.16934 1.0192-0.21175 0.61459-0.43773 1.1886-0.52341 2.3694-0.35316 1.2014 0.17324 1.5986 0.1106 1.7344-0.27403 0.0968-0.27436 0.48927-0.60614 0.87203-0.73733 0.69253-0.2373 0.69212-0.23977-0.0717-0.47576-0.81727-0.2525-1.5803-1.2536-1.2385-1.6251 0.11287-0.12269 0.64637-0.11794 1.1855 0.0108 0.67919 0.16215 0.98013 0.43862 0.98013 0.90023 0 0.48726 0.22424 0.66626 0.83497 0.66626 0.71861 0 0.81385 0.12074 0.68263 0.86701-0.0995 0.56594-8e-3 0.86727 0.26288 0.86727 0.60883 0 0.9205-0.72679 0.44782-1.0443-0.59317-0.39846-0.12666-1.3838 0.65521-1.3838 0.52457 0 0.62599-0.15031 0.46737-0.69362-0.23101-0.79105 0.39911-0.97605 0.67387-0.19782 0.21284 0.60301 1.7916 1.2382 3.0774 1.2382 0.61334 0 1.1524 0.28853 1.5403 0.82452 0.73426 1.0146 1.8599 1.3946 2.1018 0.70949 0.0958-0.27136 0.46414-0.49335 0.81833-0.49335 0.54535 0 0.61447 0.15946 0.45233 1.0407-0.13268 0.72094-0.0664 1.0407 0.21547 1.0407 0.586 0 1.149-0.70478 0.96934-1.2136-0.2204-0.6243 1.0356-0.86366 3.0756-0.58615 1.2498 0.17003 1.7551 0.3886 1.7551 0.75908 0 0.39735-0.35819 0.5069-1.5158 0.46404-0.8337-0.0309-1.5158 0.0822-1.5158 0.25131 0 0.37528 1.9576 1.5446 2.371 1.4163 1.8407-0.57141 3.6006-0.6997 4.5388-0.33093 0.9422 0.37034 1.1683 0.33046 2.023-0.35633 2.3162-1.8614 3.3323-2.485 4.0483-2.485 0.6444 0 0.75076 0.15076 0.6734 0.95396-0.0788 0.81861 0.0364 0.96974 0.81229 1.0663 0.49729 0.0619 1.3817-0.13366 1.9654-0.43473 0.58369-0.30108 1.3257-0.4458 1.6488-0.32165 0.49199 0.18901 0.51988 0.14691 0.17099-0.25888-0.22919-0.26655-0.7645-0.48455-1.1895-0.48455-1.46 0-0.9152-0.69397 0.60038-0.76468 1.0772-0.0503 1.5675 0.0754 1.694 0.43375 0.21819 0.61803 0.96086 0.66324 1.1583 0.0705 0.11558-0.34688 0.27962-0.34688 0.82014 0 0.37154 0.23846 1.3007 0.43375 2.0647 0.43375 1.1715 0 1.4461-0.13566 1.7522-0.8658 0.42755-1.02 4e-3 -2.603-0.69721-2.603-0.50522 0-0.93978-0.93087-0.66241-1.4187 0.0987-0.17356 0.59312-0.31555 1.099-0.31555 0.50581 0 1.0085-0.15602 1.117-0.34681 0.10845-0.19076-0.0696-0.34705-0.39591-0.34705-1.7737 0-1.8099-2.0914-0.0654-3.7782-0.32843-0.55417 18.687-20.644 18.206-21.035-1.1272-1.5183-0.22433-0.31158-2.8067-3.6996-1.1453-1.5908-2.5038-3.2997-2.9044-4.8511-1.586-3.1506-13.7-28.48-29.747-62.198-11.833-24.864-17.517-37.892-18.453-39.427-0.89836-5.7153-4.5766-23.989-4.631-30.371-1.4236 14.235-1.218 12.253-1.4235 14.234-0.32055 3.0918-0.98609 7.7556-1.3264 8.7283-0.25468 0.72825-3.611-4.9702-3.9933-5.3955-0.3938-0.43819-1.8729-13.088-3.6877-31.538-0.19706-2.0032-0.47896-4.3446-0.62645-5.2031s-0.73655-8.919-0.73655-8.919zm-0.0126 0.09354c2e-3 0.04845 0.0832 3.0714 0.0445 3.1137-0.58577 0.65526-1.1844 2.4074-18.221 45.787-23.329 59.402-37.414 94.907-38.95 98.187-1.1601 3.6523-3.9751 7.5907-7.5486 12.177-4.8564 6.2328-8.3705 11.89-14.567 19.701-0.36575-0.0314-0.3808 0.011-0.5887-0.29796-0.21824-0.32434 79.536-176.17 79.831-178.67zm12.323 41.84s2.1149 14.533 3.0709 19.049c-0.28175 2.1589-2e-3 22.523-0.25976 64.019l-0.1975 31.782-1.3293 6.0264c-1.1636 5.2748-1.4079 6.0264-1.958 6.0264-0.99438 0-1.7559-4.3693-1.9349-11.1-0.35784-13.461 2.1764-112.17 2.4395-112.45-8e-3 -0.36678 0.16898-3.3518 0.16898-3.3518zm-69.04 108.53c11.715 1.8486 51.01 11.23 55.911 12.46 1.0448 0.26236 2.0774 0.74125 2.2946 1.0641 0.70279 1.0447 2.114 5.6757 1.9077 6.2601-0.18071 0.51188-0.77096 0.53851-6.0221 0.27257-3.202-0.16217-8.2222-0.0134-11.156-0.0134-4.5382 0.0272-5.8663 0.1173-11.411 0.82311 6.7554 0.97089 9.2217 1.2546 14.203 1.2883 2.8255 0.13705 7.4634 0.58487 11.705 0.78566-3.495 0.95107-2.583 0.52966-4.7648 0.89757-3.9623 0.23469-1.5734 0.29261-8.8366 0.15386l-21.616 0.69434c-0.23806 0.21313-2.7307 0.63548-5.539 0.93883-11.875 0.522 1e-5 0-21.017 1.1276-9.695 0.4127-1.4227 0.20381-13.569 1.5728-0.12952 0.0241-3.6729 0.15225-3.7888 0.1734 18.824-26.464 12.597-16.634 21.699-28.499zm73.91 3.6691c0.71624 2e-3 1.9869 0.14903 4.3998 0.44401 8.1479 0.99611 34.026 6.7844 42.794 9.7519 2.4153 2.243 2.3337 2.2658 5.2219 5.9162 0 0-4.7771 0.46781-31.499 0.71292-17.697 0.16233-24.668 0.11894-24.824-0.15436-0.11883-0.209 2e-3 -1.5951 0.26694-3.0802 0.26563-1.4852 0.8599-4.9163 1.3205-7.6246 0.46068-2.7083 1.0215-5.198 1.2466-5.5325 0.19501-0.2899 0.35689-0.43466 1.0731-0.43327zm52.752 16.846c-1.9332 2.1952-12.18 14.251-14.13 16.244-2.2236 2.2726-4.1707 3.989-4.5251 3.989-0.56842 0-0.60439-0.17217-0.41703-1.9944 0.42277-4.1119 0.82059-10.774 0.82755-13.863 6e-3 -2.8005 0.0836-3.2409 0.62442-3.5555 0.38161-0.22198 3.9456-0.36108 9.3345-0.3644 3.7523-2e-3 7.0125-0.3164 8.2856-0.45621zm-126.49 21.298c0.80145 9e-3 1.5032 0.2355 1.5032 0.57615 0 0.23471-0.56906 0.74206-1.2644 1.1274-1.1608 0.64327-1.7263 0.83693-1.7938 0.61399-0.0144-0.0477-0.0905-0.51184-0.16919-1.0314-0.11697-0.77204-2e-3 -0.98301 0.62578-1.1545 0.34896-0.0952 0.73406-0.13583 1.0983-0.13165zm2.4838 0.80108c0.0516 3e-3 0.10484 0.021 0.15818 0.0569 0.1634 0.10976 0.29728 0.42458 0.29728 0.69948 0 0.57235-0.50444 0.66897-0.7979 0.15289-0.21144-0.37189 2e-3 -0.8704 0.29143-0.90756 0.0168-2e-3 0.0338-2e-3 0.051-2e-3zm11.47 3.164c1.6976 0 1.9104 0.0771 1.9104 0.69362 0 0.55349-0.22581 0.70242-1.117 0.73636-1.9732 0.0752-2.9198-0.21074-2.8069-0.84798 0.0828-0.46745 0.4791-0.582 2.0135-0.582zm31.625 2.3874c0.0381-2e-3 0.0799 0.0113 0.12381 0.0408 0.17553 0.11791 0.31906 0.36122 0.31906 0.54073s-0.14353 0.32629-0.31906 0.32629c-0.17554 0-0.31908-0.2433-0.31908-0.54072 0-0.22307 0.0808-0.36157 0.19527-0.36709zm74.161 0.25913c-0.1446 0-0.28913 0.0239-0.39884 0.072-0.21935 0.0962-0.04 0.17511 0.39884 0.17511 0.43891 0 0.61846-0.0789 0.39906-0.17511-0.1097-0.0481-0.25445-0.072-0.39906-0.072zm-82.755 4e-3c0.0149-2e-3 0.0308-2e-3 0.0478 0 0.16325 0.0105 0.42706 0.12218 0.85362 0.29846 0.62008 0.25626 0.81398 0.55107 0.7388 1.1237-0.19533 1.4882-1.8571 1.0772-1.8571-0.45939 0-0.67136-7e-3 -0.94547 0.21684-0.96277zm-10.396 0.32581c0.53031 0.0139 1.1066 0.31084 1.1839 0.75174 0.0823 0.46944-0.11172 0.60715-0.85564 0.60715-1.045 0-1.5797-0.54867-1.0722-1.1002 0.15206-0.16528 0.38563-0.24581 0.63859-0.25766 0.0348-2e-3 0.0701-2e-3 0.10538-2e-3zm8.6022 0.66577c0.16514 0 0.30018 0.23429 0.30018 0.52045 0 0.5364-0.37646 0.6891-0.73587 0.29846-0.25493-0.27713 0.0333-0.81891 0.43569-0.81891zm12.727 0.34705c0.16517 0 0.38898 0.15603 0.49747 0.34682 0.10844 0.19077-0.0265 0.3468-0.3002 0.3468-0.27363 0-0.49747-0.15603-0.49747-0.3468 0-0.19079 0.13504-0.34682 0.3002-0.34682zm-29.378 0.69362c-0.7697 0-1.1981 0.13764-1.0792 0.3468 0.10849 0.19079 0.77173 0.34706 1.4738 0.34706 0.76975 0 1.1981-0.1379 1.0792-0.34706-0.10848-0.19077-0.77169-0.3468-1.4738-0.3468zm73.316 1.0407c0.91628 0 0.98992 0.53493 0.14157 1.0284-0.71419 0.41543-1.1058 0.45182-1.4012 0.13066-0.36315-0.39476 0.46755-1.1591 1.2596-1.1591zm12.433 0.22834c-0.18616-7e-3 -0.44415 0.071-0.76262 0.2457-0.47272 0.2593-1.0391 0.40163-1.2585 0.31653-0.21936-0.0851-0.39883 0.0809-0.39883 0.36903 0 0.28808 0.25144 0.59513 0.5586 0.68237 1.1297 0.3209 1.5309 0.22344 1.9285-0.46867 0.40495-0.70476 0.34251-1.1298-0.0672-1.145zm-53.619 0.46526c0.89584 0 1.3468 0.65556 0.7388 1.0741-0.52091 0.3586-1.682 0.40863-1.9796 0.0852-0.3592-0.39045 0.46363-1.1594 1.2408-1.1594zm-11.03 0.52045c0.23405 0 0.48544 0.19505 0.55858 0.43352 0.0791 0.25792-0.14726 0.43351-0.55858 0.43351-0.4113 0-0.63751-0.17559-0.55838-0.43351 0.0732-0.23847 0.32435-0.43352 0.55838-0.43352zm55.829 0.17879c-0.4743 7e-3 -1.0846 0.20125-1.396 0.53974-0.2758 0.2998-0.5013 0.93433-0.5013 1.4102 0 0.47585-0.14864 1.1672-0.3303 1.5362-0.35103 0.71285-0.23069 0.77852 0.84912 0.46355 0.59931-0.17483 0.64801-0.34375 0.41839-1.4502-0.31429-1.5147-0.17736-1.8112 0.83676-1.8112 0.42842 0 0.77902-0.15604 0.77902-0.34681 0-0.23988-0.28676-0.34709-0.65566-0.34143zm-31.749 1.3753c-0.5026-0.0114-0.83589 0.0852-0.6087 0.31994 0.16676 0.17226 0.59041 0.38838 0.94148 0.48015 0.35102 0.0918 0.99722 0.18006 1.436 0.19612 0.76911 0.0282 0.77536 0.0108 0.17819-0.48016-0.37478-0.30812-1.3008-0.5014-1.947-0.51605z" fill="#500" stroke-width=".33271"/>
 </g>
</svg>
